<svg width="408" height="472" viewBox="0 0 408 472" fill="none" xmlns="http://www.w3.org/2000/svg">
<path d="M196 0.300049L20.33 112.6L196 108.8V0.300049ZM212 0.300049V108.8L387.7 112.6L212 0.300049ZM263.4 59.2C269.5 62.7 271.6 66.4001 278.5 63.4001C289.2 64.2001 300.8 69.2001 306.1 79.1001C310.8 83.6001 307.6 91.7 300.9 91.7C291.2 91.8 281.2 85.6001 286.3 83.4001C291 81.4001 301 84.3001 296.3 77.9001C292.7 73.4001 285.3 70.1 280 72C278.4 78.8 270.6 76 268 71.3C265.7 65.5 258.9 63.1001 253 63.4001C246.9 66.1001 254.6 72.2 258.3 73.3C266.2 75.5 258.5 80.8001 254.2 78.4001C250 76.0001 239.2 68.8 240.7 60.1C246.5 52.71 256.5 55.48 263.4 59.2ZM154.9 55.7C160.4 56.2 167.2 58.7001 165.1 65.6001C160.8 72.6001 155.3 78.7001 147 80.4001C140.5 83.8001 132.1 84.8 125.4 82.3C121.7 80 111.9 73.0001 110.5 78.9001C108.4 93.7001 111.2 92 99.4 96.7V72.3C109.3 68.4 120.5 67.8001 129.7 73.6001C137.7 77.8001 149.1 75.1001 153.9 67.9001C155.3 61.4001 145.8 63.3 141.7 64.5C139 56.3 149.6 57 154.9 55.7ZM189.9 124.9L3.39 129L74.6 321.9L189.9 124.9ZM218.1 124.9L333.4 321.9L404.6 129L218.1 124.9ZM204 132.4L86.9 332.6H321.1L204 132.4ZM337.3 153.5C351.2 161.8 358.8 179.7 359.4 196.5C358.1 210.1 358.7 216.3 344.2 217.9C329.7 219.5 320.3 198.7 314.5 185.3C311.1 175.4 308.7 161.3 316.2 154C322.3 149.2 331.2 149.9 337.3 153.5ZM113.6 169.6C115.7 173.6 113.1 181 108.8 181.7C103.9 182.4 105 172.4 99.4 170.1C92.5 167.8 85.8 175.7 84.4 181.7C94.8 177.7 104.7 188.8 104.7 198.7C104.3 210.4 96.8 223.5 85 226.8H79.4C66.7 226.1 61.1 211 65.2 200.2C69.6 184.4 76 166.3 92.4 159.6C100.9 155.7 111.4 162.8 113.6 169.6ZM327.5 161.2C320.4 161.1 323.1 171.2 324.2 175.7C327.7 187.2 331.5 202.3 343.1 205.7C349.9 204.5 347.5 192.9 346.8 189.2C342.1 178.3 339.7 165.9 327.5 161.2ZM0 166V339.2L61.9 333.5L0 166ZM408 166L346.1 333.5L408 339.2V166ZM290.1 166.7L318.6 230.2L308.6 234.6L288.6 191.3C282.5 194.3 275.6 200.2 274 189.9C272.7 186 282.5 184.8 282.1 178C281.8 171.1 284.3 165.8 290.1 166.7ZM78.1 194.1C75.7 199.2 74 204.4 75.4 210C77.1 218.8 88.9 216.4 91 209.2C93.7 204.2 94.9 197.5 90.5 193.5C86.4 190.1 81.6 190.7 78.1 194.1ZM406.5 235.7C406.4 254.3 407.6 274.9 396.8 291C395.9 292.2 394.6 292.9 393.1 293.5C387.3 289.4 390.1 282.2 394.3 278C395.3 285.3 399.8 275.1 400.9 272.4C402.2 269.2 404.5 254.7 399.9 262.2C400.6 266.2 393.1 275.3 390.6 270.3C385.6 255.9 390.6 239.8 397.6 226.8C403.3 220.6 407.5 231.2 406.5 235.7ZM7.93 225.5C8.52 225.6 9.27 226.5 10.41 229.1V290.2C3.11 283.2 5.94 272.2 5.96 263.8C5.96 255.4 7.61 247.5 4.68 240.6C0.0600004 238.9 -1.11 223.6 1.51 227.9C5.92 232.7 6.17 225.2 7.93 225.5ZM186.7 233.1C194.8 237.6 200.5 247.5 197.5 256.7C195.4 271.9 170.5 277.8 167.1 286.4C165.9 289.4 192.5 288 197.3 288C197.8 292 198.8 298.7 193.5 299.7C179 298.5 163.6 299.1 148.4 299.1C148.8 287.9 155.8 277.8 165.4 272.3C172.3 267.4 180.8 263 183.5 254.4C185.3 249.9 182.9 245.1 178.9 242.9C174.7 240 167.9 240.6 165.7 245.6C163.7 249.4 161.3 254.7 157 255.2C154.1 255.6 148 255.7 149.8 250.3C151.2 244.7 153.2 238.8 158 235.1C166.8 228.8 177.9 228.4 186.7 233.1ZM240 231.7C246.8 233.9 252 239.6 254.3 246.3C260.4 261 259.8 279.4 249.9 292.2C245.4 297 239.7 301.3 232.9 301.3C220.4 301.2 210.5 290.2 208.1 278.5C205 265.1 206.3 249.8 215 238.7C221.8 231.1 231 228.4 240 231.7ZM396.1 239.8C394.5 245.7 392.8 253.2 395.4 259.1C400.5 257.1 400.8 249.5 402 244.6C402.9 238.5 398.5 232 396.1 239.8ZM219.9 260.9C220.5 271.4 221.6 283.7 229.6 289.1C234.5 290.9 239.3 286.9 240.7 282.4C242.6 276.1 243 269.5 243.1 263C242.9 255.9 241.6 248 236.4 242.9C224.2 238.5 221.1 253.8 219.9 260.9ZM382 246.8V308L377.6 314.7V272.4C373 279.9 368.5 281.5 371.5 271.5C377.6 264.4 376.3 254.1 382 246.8ZM31.85 259C32.65 262.6 36.97 276.8 33.89 273.8C31.92 272.5 30.27 268.9 30.48 267.7C28.93 264.7 27.52 261.6 26.27 258.5C23.32 262.5 22.31 266.8 23.13 271.9C23.33 270.3 24.31 269.6 26.52 271.2C34.36 283.8 38.69 300.3 33.81 314.7L31.59 315.8C21.23 310 20.19 296.4 18.16 285.8C16.61 273.5 17.37 261.1 20.46 249.1C25.66 245.3 29.62 254.5 31.85 259ZM24.8 279.2C20.74 283.9 22.54 292 24.42 297.6C25.53 303.1 31.34 307.8 30.48 299.2C31.17 288.1 28.15 286.5 24.8 279.2ZM91.2 348.6L204 471.7L316.8 348.6H91.2ZM69.8 348.9L15.96 353.8L80.2 394.9C77.6 392.2 75.3 389.2 73.1 386.1C67.9 379.2 62.6 372.5 54.2 369.5C45.45 363 50 364.2 57.1 366.9C56.1 365.1 56.4 364.3 57.2 364.3C59.4 364.1 65.6 368.5 67 370.6L91.7 402.2L156.8 443.9L69.8 348.9ZM338.2 348.9L295.8 395.2C302.2 392.1 307.1 386.7 312.8 382.8C315.2 381.4 316.5 380.9 317.1 380.9C319.2 380.9 311.7 388 309.4 391.2C300 401 293.4 414.2 280.8 420.3L299.7 395.8C297.4 397.1 293.7 399 291.5 399.9L251.2 443.9L325.7 396.3C331.1 389.6 327.6 390.7 320 395.4L308.6 401.4C320 387.7 339.4 373.1 348.6 365.8C357.8 358.5 364.5 356 356.8 364.3L344.2 380.3C354.2 372.7 345.1 384.2 339.7 385.8C339 386.8 338.3 387.8 337.5 388.7L392 353.8L338.2 348.9ZM184 365.8V409.2H170.6V379.2C165.6 377.8 160.2 380.9 155.3 378.9C151.5 376 156.3 372.1 159.8 373C163.1 372.9 167.4 373.2 169.1 369.8C173.5 365.3 178.7 365.4 184 365.8ZM213 366.3C225.1 367.5 237.2 366.9 249.6 366.9C251.1 369.9 250.4 374.7 246.3 374.8C238.6 375.1 225.3 373.2 220.4 375.4C212.2 385.9 226.1 379.2 231.8 380.6C238.8 381.7 246.8 383.5 250.9 389.8C253 392.9 253.6 397.1 251.6 400.5C245.8 407.3 234.6 412 226.3 411.4C219 410.8 210.7 410.3 205.7 404.3C199.3 393.7 216.2 397.6 217.9 401.1C223.9 406.4 238.2 403 238.6 396.4C239.2 392.2 236.5 390.1 231.7 388.6C226.9 387.1 219.1 389.6 214.4 390.4C209.7 391.2 204.8 390.9 205.4 386C206.2 381.8 208.1 377.9 208.1 373.5C208.2 370.5 209.8 366.5 213 366.3ZM346.5 371.3C346.3 371.1 339.5 377.1 336.6 379.4L320.8 392.5C331.4 386 340.1 380.5 346.5 371.3ZM99.5 385.5C101.9 385.5 107 390.1 108.9 392.5L135 423.6C127.3 421.5 121.7 416.5 117.4 409.9C110.9 402.6 106.1 393.3 96.2 390.3C87.2 385.3 91 383.9 98.3 388.1C98 386.2 98.5 385.5 99.5 385.5Z" fill="#A4A4A4" fill-opacity="0.35"/>
</svg>
