<svg width="35" height="35" viewBox="0 0 35 35" fill="none" xmlns="http://www.w3.org/2000/svg">
<path d="M4.88976 9.42676L16.8984 1.75V9.16699L4.88976 9.42676Z" fill="#A4A4A4" fill-opacity="0.35"/>
<path d="M17.9922 9.16699V1.75L30.003 9.42676L17.9922 9.16699Z" fill="#A4A4A4" fill-opacity="0.35"/>
<path d="M3.73174 10.5479L16.4815 10.2676L8.59961 23.7343L3.73174 10.5479Z" fill="#A4A4A4" fill-opacity="0.35"/>
<path d="M26.291 23.7343L18.4092 10.2676L31.1583 10.5479L26.291 23.7343Z" fill="#A4A4A4" fill-opacity="0.35"/>
<path d="M9.44042 24.4658L17.4453 10.7803L25.4502 24.4658H9.44042Z" fill="#A4A4A4" fill-opacity="0.35"/>
<path d="M3.5 24.9171V13.0771L5.61572 18.8023L7.73144 24.5273L3.5 24.9171Z" fill="#A4A4A4" fill-opacity="0.35"/>
<path d="M27.1592 24.5273L31.3907 13.0771V24.9171L27.1592 24.5273Z" fill="#A4A4A4" fill-opacity="0.35"/>
<path d="M17.4453 33.9746L9.73437 25.5595H25.1563L17.4453 33.9746Z" fill="#A4A4A4" fill-opacity="0.35"/>
<path d="M4.59102 25.915L8.27148 25.5801L14.2187 32.0743L9.76855 29.2236L4.59102 25.915Z" fill="#A4A4A4" fill-opacity="0.35"/>
<path d="M23.7208 28.7451L26.6192 25.5801L30.2968 25.915L26.5713 28.3007L20.6718 32.0743L23.4268 29.0664C23.4744 29.0469 23.6218 28.8982 23.806 28.7011C23.778 28.7165 23.7496 28.7311 23.7208 28.7451Z" fill="#A4A4A4" fill-opacity="0.35"/>
</svg>
