<svg width="19" height="19" viewBox="0 0 19 19" fill="none" xmlns="http://www.w3.org/2000/svg">
<path d="M2.31004 0.000117198L1.61762 0.122266L1.98184 2.18812C1.77595 2.22019 1.57021 2.25326 1.36465 2.28734L1.11062 0.846328L0.418203 0.968359L0.671719 2.40566C0.447625 2.44514 0.223716 2.48566 0 2.52723L0.128594 3.21848C0.352344 3.17684 0.573789 3.13684 0.79375 3.09801L1.06937 4.66129L1.76184 4.53926L1.48684 2.97949C1.69402 2.94512 1.89973 2.91211 2.10395 2.88027L2.48586 5.04629L3.17832 4.92418L2.79953 2.77613C3.1309 2.72855 3.45836 2.6848 3.78313 2.6441C4.39016 4.45621 5.13848 6.55016 6.39781 7.89598C6.73848 9.08352 6.78301 9.74789 7.66426 11.3885C6.78301 12.8729 6.15801 15.3729 5.81465 17.6776L3.93965 17.912V18.4979H6.78301C7.40801 16.6229 9.28301 12.8729 9.28301 12.8729C9.28301 12.8729 11.158 16.6229 11.783 18.4979H14.6264V17.912L12.7514 17.6776C12.408 15.3729 11.783 12.8729 10.7674 11.3885C11.783 9.74789 11.7117 9.06098 12.167 7.89723C13.4268 6.55145 14.1756 4.4568 14.7829 2.64418C15.1077 2.6848 15.4351 2.72855 15.7665 2.77621L15.3877 4.92426L16.0802 5.04629L16.4621 2.88027C16.6664 2.91211 16.8721 2.94512 17.0793 2.97949L16.8043 4.53926L17.4967 4.66133L17.7723 3.09805C17.9923 3.13684 18.2137 3.17684 18.4375 3.21848L18.5661 2.52723C18.3403 2.48523 18.1166 2.4448 17.8944 2.40562L18.1479 0.968281L17.4555 0.846211L17.2014 2.28723C16.9943 2.25285 16.7885 2.21977 16.5842 2.18801L16.9484 0.122148L16.256 0L15.8886 2.08398C13.5792 1.75219 11.4307 1.58539 9.28301 1.58539C7.13535 1.58539 4.9868 1.75219 2.67746 2.0841L2.31004 0.000117198ZM9.28301 2.28617C10.6709 2.28617 12.0592 2.35766 13.4948 2.49957C12.9447 3.86121 11.9927 5.37082 11.0259 6.48266C10.6226 7.06313 9.9998 7.4432 9.28301 7.4432C8.56621 7.4432 7.9434 7.06313 7.54004 6.48266C6.57332 5.37082 5.62129 3.86117 5.07121 2.49957C6.50676 2.35766 7.89504 2.28617 9.28301 2.28617ZM9.28301 3.0682C8.46914 3.0682 7.75957 3.85883 7.75957 4.90414C7.75957 5.94945 8.46914 6.74008 9.28301 6.74008C10.0969 6.74008 10.8064 5.94945 10.8064 4.90414C10.8064 3.85883 10.0969 3.0682 9.28301 3.0682Z" fill="white"/>
</svg>
