<svg width="30" height="30" viewBox="0 0 30 30" fill="none" xmlns="http://www.w3.org/2000/svg">
<g clip-path="url(#clip0_87_30)">
<g clip-path="url(#clip1_87_30)">
<path d="M15 0.5625C12.8645 0.5625 10.7072 1.34959 6.79863 2.90625H23.2014C19.2928 1.34959 17.1354 0.5625 15 0.5625ZM5.58656 3.84375L3.75 25.875C7.03125 27.5156 10.3125 27.7207 13.5938 27.7464V13.6875H6.5625V10.875H23.4375V13.6875H16.4062V27.7464C19.6875 27.7207 22.9688 27.5156 26.25 25.875L24.4134 3.84375H5.58656ZM9.38783 9C9.5099 9.00336 9.62585 9.05422 9.71099 9.14177C9.79612 9.22932 9.84374 9.34663 9.84369 9.46875C9.84369 9.59307 9.79431 9.7123 9.7064 9.80021C9.61849 9.88811 9.49926 9.9375 9.37494 9.9375C9.25062 9.9375 9.13139 9.88811 9.04349 9.80021C8.95558 9.7123 8.90619 9.59307 8.90619 9.46875C8.90617 9.40609 8.91871 9.34407 8.94307 9.28634C8.96742 9.22861 9.00311 9.17635 9.04801 9.13265C9.09291 9.08895 9.14612 9.0547 9.20449 9.03191C9.26286 9.00913 9.3252 8.99828 9.38783 9ZM12.2003 9C12.3224 9.00336 12.4383 9.05422 12.5235 9.14177C12.6086 9.22932 12.6562 9.34663 12.6562 9.46875C12.6562 9.59307 12.6068 9.7123 12.5189 9.80021C12.431 9.88811 12.3118 9.9375 12.1874 9.9375C12.0631 9.9375 11.9439 9.88811 11.856 9.80021C11.7681 9.7123 11.7187 9.59307 11.7187 9.46875C11.7187 9.40609 11.7312 9.34407 11.7556 9.28634C11.7799 9.22861 11.8156 9.17635 11.8605 9.13265C11.9054 9.08895 11.9586 9.0547 12.017 9.03191C12.0754 9.00913 12.1377 8.99828 12.2003 9ZM15.0128 9C15.1349 9.00336 15.2508 9.05422 15.336 9.14177C15.4211 9.22932 15.4687 9.34663 15.4687 9.46875C15.4687 9.59307 15.4193 9.7123 15.3314 9.80021C15.2435 9.88811 15.1243 9.9375 14.9999 9.9375C14.8756 9.9375 14.7564 9.88811 14.6685 9.80021C14.5806 9.7123 14.5312 9.59307 14.5312 9.46875C14.5312 9.40609 14.5437 9.34407 14.5681 9.28634C14.5924 9.22861 14.6281 9.17635 14.673 9.13265C14.7179 9.08895 14.7711 9.0547 14.8295 9.03191C14.8879 9.00913 14.9502 8.99828 15.0128 9ZM17.8253 9C17.9474 9.00336 18.0633 9.05422 18.1485 9.14177C18.2336 9.22932 18.2812 9.34663 18.2812 9.46875C18.2812 9.59307 18.2318 9.7123 18.1439 9.80021C18.056 9.88811 17.9368 9.9375 17.8124 9.9375C17.6881 9.9375 17.5689 9.88811 17.481 9.80021C17.3931 9.7123 17.3437 9.59307 17.3437 9.46875C17.3437 9.40609 17.3562 9.34407 17.3806 9.28634C17.4049 9.22861 17.4406 9.17635 17.4855 9.13265C17.5304 9.08895 17.5836 9.0547 17.642 9.03191C17.7004 9.00913 17.7627 8.99828 17.8253 9ZM20.6378 9C20.7599 9.00336 20.8758 9.05422 20.961 9.14177C21.0461 9.22932 21.0937 9.34663 21.0937 9.46875C21.0937 9.59307 21.0443 9.7123 20.9564 9.80021C20.8685 9.88811 20.7493 9.9375 20.6249 9.9375C20.5006 9.9375 20.3814 9.88811 20.2935 9.80021C20.2056 9.7123 20.1562 9.59307 20.1562 9.46875C20.1562 9.40609 20.1687 9.34407 20.1931 9.28634C20.2174 9.22861 20.2531 9.17635 20.298 9.13265C20.3429 9.08895 20.3961 9.0547 20.4545 9.03191C20.5129 9.00913 20.5752 8.99828 20.6378 9ZM14.5312 13.6875V27.75C14.6875 27.7501 14.8437 27.75 15 27.75C15.1563 27.75 15.3125 27.7501 15.4688 27.75V13.6875H14.5312ZM7.5 16.5H8.4375V17.4375H7.5V16.5ZM9.375 16.5H10.3125V17.4375H9.375V16.5ZM11.25 16.5H12.1875V17.4375H11.25V16.5ZM17.8125 16.5H18.75V17.4375H17.8125V16.5ZM19.6875 16.5H20.625V17.4375H19.6875V16.5ZM21.5625 16.5H22.5V17.4375H21.5625V16.5ZM7.5 18.375H8.4375V19.3125H7.5V18.375ZM9.375 18.375H10.3125V19.3125H9.375V18.375ZM11.25 18.375H12.1875V19.3125H11.25V18.375ZM17.8125 18.375H18.75V19.3125H17.8125V18.375ZM19.6875 18.375H20.625V19.3125H19.6875V18.375ZM21.5625 18.375H22.5V19.3125H21.5625V18.375ZM7.5 20.25H8.4375V21.1875H7.5V20.25ZM9.375 20.25H10.3125V21.1875H9.375V20.25ZM11.25 20.25H12.1875V21.1875H11.25V20.25ZM17.8125 20.25H18.75V21.1875H17.8125V20.25ZM19.6875 20.25H20.625V21.1875H19.6875V20.25ZM21.5625 20.25H22.5V21.1875H21.5625V20.25Z" fill="#9E9E9E"/>
</g>
</g>
<defs>
<clipPath id="clip0_87_30">
<rect width="30" height="30" fill="white"/>
</clipPath>
<clipPath id="clip1_87_30">
<rect width="30" height="30" fill="white" transform="translate(0 -0.375)"/>
</clipPath>
</defs>
</svg>
