<svg width="30" height="30" viewBox="0 0 30 30" fill="none" xmlns="http://www.w3.org/2000/svg">
<g clip-path="url(#clip0_87_43)">
<path d="M8.52263 11.097C9.48855 10.5727 10.5641 11.6371 11.2403 13.0198C11.2492 13.7472 11.5217 14.3859 11.8545 14.8984L10.5606 16.0938C8.81948 15.3046 7.08794 12.3652 8.2272 11.3125C8.3166 11.2288 8.41613 11.1567 8.52338 11.0977L8.52263 11.097ZM12.3101 15.4599L10.9926 16.6763C12.6028 19.5373 14.8564 16.6576 12.3101 15.4599ZM17.4471 22.1349C17.3399 22.1939 17.2403 22.2661 17.1509 22.3498C16.0117 23.4025 17.7431 26.3418 19.4843 27.1309L20.7782 25.9355C20.4455 25.423 20.1736 24.7844 20.1638 24.057C19.4878 22.6744 18.4123 21.61 17.4463 22.1342L17.4471 22.1349ZM21.2346 26.4979L19.917 27.7141C21.5271 30.5737 23.7808 27.6947 21.2339 26.4979L21.2346 26.4979ZM17.4158 12.5566C16.556 13.2409 17.1163 14.6464 18.1245 15.8086C18.7901 16.1013 19.2721 16.6012 19.6139 17.1074L21.2213 16.3828C21.1742 14.4717 19.1445 11.7299 17.7306 12.3679C17.6187 12.4175 17.5134 12.4809 17.4171 12.5565L17.4158 12.5566ZM19.9538 17.7468C20.062 20.5586 23.5928 19.6079 21.5874 17.0089L19.9538 17.7468ZM7.84245 2.31188C7.17952 3.18826 8.07053 4.40801 9.33323 5.28657C10.0511 5.40446 10.6418 5.77196 11.0981 6.17555L12.4738 5.07516C11.9572 3.23544 9.31103 1.07965 8.0997 2.05038C8.00348 2.12602 7.917 2.21338 7.84238 2.31042L7.84245 2.31188ZM11.5869 6.71016C12.3884 9.40755 15.5741 7.61163 12.9869 5.59032L11.5869 6.71016Z" fill="#9E9E9E"/>
</g>
<defs>
<clipPath id="clip0_87_43">
<rect width="30" height="30" fill="white"/>
</clipPath>
</defs>
</svg>
