<svg width="18" height="17" viewBox="0 0 18 17" fill="none" xmlns="http://www.w3.org/2000/svg">
<path d="M8.75 0C7.64648 0 6.47031 0.71289 5.57945 1.75223C5.45687 1.8952 5.34027 2.0443 5.22996 2.19766L6.875 1.10094L7.7784 1.70321C7.79816 1.43227 7.87871 1.18321 8.01551 0.97801C8.17441 0.73973 8.43492 0.54688 8.75 0.54688C9.0651 0.54688 9.3256 0.73969 9.4845 0.97801C9.6213 1.18321 9.7018 1.43231 9.7216 1.70321L10.625 1.10094L12.27 2.19766C12.1597 2.0443 12.0431 1.89524 11.9205 1.75223C11.0297 0.71289 9.8535 0 8.75 0ZM8.75 1.25C8.71992 1.25 8.66785 1.26703 8.60055 1.36797C8.5332 1.46906 8.47656 1.64043 8.47656 1.83594C8.47656 1.98555 8.50977 2.12071 8.55547 2.22129L8.75 2.35098L8.9445 2.22129C8.9902 2.12071 9.0234 1.98555 9.0234 1.83594C9.0234 1.64039 8.9668 1.46903 8.8995 1.36797C8.8321 1.26707 8.7801 1.25 8.75 1.25ZM6.875 1.94594L5.75691 2.69125L5.96535 2.73293C6.62637 2.81457 7.39223 2.86676 8.17648 2.88399C8.12242 2.83321 8.07391 2.77696 8.03195 2.71727L6.875 1.94594ZM10.625 1.94594L9.4681 2.71731C9.4261 2.77696 9.3776 2.83324 9.3236 2.88399C10.1078 2.86672 10.8737 2.81457 11.5348 2.73293L11.7431 2.69125L10.625 1.94594ZM0 2.77344C1.30148 4.07492 2.30133 6.27899 2.79152 7.71508C2.91559 6.70758 3.08187 5.6816 3.28137 4.79875C3.32734 4.59551 3.37367 4.40121 3.42141 4.21586C2.60391 3.57539 0.5007 2.77344 0 2.77344ZM17.5 2.77344C16.9993 2.77344 14.8961 3.57539 14.0786 4.21586C14.1263 4.40121 14.1727 4.59555 14.2186 4.79875C14.4181 5.68157 14.5844 6.70758 14.7084 7.71508C15.1987 6.27899 16.1986 4.07492 17.5 2.77344ZM4.55195 3.16742C4.37062 3.50946 4.14668 4.15953 3.96719 4.95375C3.75332 5.90024 3.57422 7.04125 3.44934 8.13516C3.34309 9.06534 3.27902 9.95174 3.26059 10.6654C3.52867 9.75604 3.85934 8.65284 4.28074 7.54266C4.86465 6.00438 5.58855 4.47574 6.61504 3.58L4.55195 3.16742ZM12.948 3.16742L10.885 3.58C11.9114 4.47571 12.6354 6.00434 13.2193 7.54266C13.6407 8.65284 13.9714 9.75614 14.2394 10.6654C14.2209 9.95174 14.1568 9.06534 14.0506 8.13516C13.9257 7.04129 13.7466 5.90028 13.5327 4.95375C13.3532 4.15953 13.1293 3.50946 12.948 3.16742ZM7.91855 3.58227L7.65723 3.71293C7.4084 3.83742 7.16602 4.02621 6.93168 4.26442C7.19211 4.29645 7.4391 4.34692 7.65785 4.41531C7.99824 4.52188 8.31352 4.62672 8.45332 4.99149L7.79676 5.24305C7.82473 5.31602 7.70836 5.16793 7.44785 5.08641C7.1873 5.00496 6.82578 4.94555 6.45832 4.93055C6.43348 4.92957 6.40859 4.92926 6.38371 4.92867C6.25754 5.1066 6.13449 5.29742 6.01488 5.49883C6.20328 5.45293 6.38293 5.42977 6.56254 5.42977C7.03129 5.42977 7.50004 5.58602 8.12504 5.89852C8.12504 6.52352 7.50004 7.14852 6.87504 7.14852C6.48988 7.14852 5.86785 6.9111 5.4468 6.58274C5.26504 6.97219 5.09484 7.37934 4.93809 7.79227C4.8473 8.03141 4.76082 8.27145 4.67785 8.51024C5.03621 9.47884 5.52855 10.3134 6.05879 10.9952C6.58516 11.672 7.14914 12.1965 7.64379 12.5446C8.13836 12.8925 8.58398 13.0468 8.75 13.0468C8.916 13.0468 9.3616 12.8925 9.8563 12.5445C10.3509 12.1964 10.9148 11.6718 11.4412 10.9951C11.9715 10.3134 12.4638 9.47874 12.8222 8.51024C12.7392 8.27141 12.6527 8.03137 12.562 7.79223C12.4052 7.37934 12.235 6.97211 12.0532 6.5827C11.6322 6.91102 11.0102 7.14844 10.625 7.14844C10 7.14844 9.375 6.52344 9.375 5.89844C10 5.58594 10.4688 5.42969 10.9375 5.42969C11.1171 5.42969 11.2968 5.45285 11.4852 5.49875C11.3663 5.2986 11.244 5.10891 11.1186 4.93188C10.7596 4.94844 10.4082 5.00668 10.1535 5.08637C9.893 5.16789 9.7766 5.31598 9.8046 5.24301L9.148 4.99145C9.2878 4.62668 9.6032 4.52184 9.9437 4.41528C10.137 4.35481 10.3529 4.30871 10.5802 4.2766C10.3422 4.03254 10.0959 3.83949 9.8427 3.71293L9.5814 3.58227C9.3066 3.58992 9.0287 3.59379 8.75 3.59379C8.47137 3.59379 8.19336 3.58989 7.91855 3.58227ZM6.5625 5.89844C6.47962 5.89844 6.40013 5.93136 6.34153 5.98997C6.28292 6.04857 6.25 6.12806 6.25 6.21094C6.25 6.29382 6.28292 6.37331 6.34153 6.43191C6.40013 6.49052 6.47962 6.52344 6.5625 6.52344C6.64538 6.52344 6.72487 6.49052 6.78347 6.43191C6.84208 6.37331 6.875 6.29382 6.875 6.21094C6.875 6.12806 6.84208 6.04857 6.78347 5.98997C6.72487 5.93136 6.64538 5.89844 6.5625 5.89844ZM10.9238 5.89844C10.8409 5.89844 10.7614 5.93136 10.7028 5.98997C10.6442 6.04857 10.6113 6.12806 10.6113 6.21094C10.6113 6.29382 10.6442 6.37331 10.7028 6.43191C10.7614 6.49052 10.8409 6.52344 10.9238 6.52344C11.0066 6.52344 11.0861 6.49052 11.1447 6.43191C11.2033 6.37331 11.2363 6.29382 11.2363 6.21094C11.2363 6.12806 11.2033 6.04857 11.1447 5.98997C11.0861 5.93136 11.0066 5.89844 10.9238 5.89844ZM8.125 8.39844L8.75 8.55854L9.375 8.39844C9.375 9.02344 8.75 9.02344 8.75 9.02344C8.75 9.02344 8.125 9.02344 8.125 8.39844ZM4.34234 9.52614C4.16695 10.0828 4.01914 10.5856 3.88055 11.0558C3.51453 13.4983 2.72516 14.9254 1.82391 16.7727C2.00813 16.754 2.20059 16.7213 2.38883 16.6586C2.7909 16.5246 3.165 16.2823 3.43551 15.7412L3.74996 15.1123L4.06441 15.7412C4.37047 16.3532 4.5384 16.5671 4.62191 16.6308C4.66371 16.6626 4.69379 16.6755 4.7759 16.7008C4.78566 16.7039 4.80258 16.7092 4.81434 16.7129C5.31852 15.5505 5.82031 13.5104 5.88992 11.892C5.75984 11.7449 5.63074 11.5901 5.50371 11.4268C5.07938 10.8812 4.67852 10.2442 4.34234 9.52614ZM13.1577 9.52614C12.8215 10.2443 12.4205 10.8811 11.9963 11.4267C11.8692 11.59 11.7401 11.7448 11.61 11.892C11.6813 13.548 12.205 15.6457 12.7208 16.7925C12.7576 16.7904 12.7873 16.7878 12.805 16.7843C12.8479 16.7756 12.8401 16.7812 12.8767 16.7444C12.9498 16.6707 13.123 16.3661 13.4355 15.7411L13.75 15.1122L14.0644 15.7411C14.335 16.2823 14.7091 16.5245 15.1111 16.6586C15.3183 16.7277 15.5299 16.7613 15.7305 16.7786C15.0411 14.9893 14.2169 13.6731 13.7575 11.5223C13.5875 10.954 13.3908 10.2658 13.1577 9.52614ZM8.125 9.64844C8.125 9.64844 8.75 9.64844 8.75 9.90984C8.75 9.64844 9.375 9.64844 9.375 9.64844C10 9.64844 10.625 10.2734 11.25 10.2734C11.25 10.2734 10.1211 11.4367 9.375 11.5234C9.1542 11.5491 8.75 11.2906 8.75 11.2906C8.75 11.2906 8.34582 11.5491 8.125 11.5234C7.37891 11.4367 6.25 10.2734 6.25 10.2734C6.875 10.2734 7.50047 9.64854 8.125 9.64844ZM6.54367 12.5576C6.52668 12.7412 6.50641 12.9263 6.48195 13.1125L6.5425 13.2034L7.55461 14.7216L8.50148 13.7748L8.54242 13.7338C8.14281 13.6754 7.71566 13.4548 7.23906 13.1195C7.01316 12.9605 6.7793 12.7726 6.54367 12.5576ZM10.9563 12.5576C10.7207 12.7725 10.4868 12.9605 10.2609 13.1195C9.7844 13.4548 9.3573 13.6753 8.9577 13.7338L9.9454 14.7215L10.9575 13.2034L11.018 13.1125C10.9936 12.9263 10.9733 12.7412 10.9563 12.5576ZM6.31492 14.1295C6.12156 15.1127 5.84531 16.0588 5.54227 16.7968H8.29063L7.19039 15.4268L6.31492 14.1295ZM11.1851 14.1295L10.3096 15.4268L9.2094 16.7968H11.9578C11.6547 16.0588 11.3785 15.1127 11.1851 14.1295ZM8.75 14.5205L7.97344 15.2972L8.75 16.2477L9.5266 15.2972L8.75 14.5205Z" fill="#D9D9D9"/>
</svg>
